<?xml version="1.0" encoding="UTF-8"?>
<svg id="Layer_1" data-name="Layer 1" xmlns="http://www.w3.org/2000/svg" version="1.1" viewBox="0 0 300 300">
  <defs>
    <style>
      .cls-1 {
        fill: #f9e271;
        stroke-width: 0px;
      }
    </style>
  </defs>
  <path class="cls-1" d="M187.29,162.1c-1.92,1.78-4.44,2.4-5.53,2.86-2.78,1.16-3.02,1.15-8.14,3.28-4.32,1.79-8.18,3.84-12.51,5.64-4.13,1.72-8.36,3.49-12.45,5.2-2.53,1.06-5.09,2.28-7.68,3.08-1.16.35-2.28.76-3.55,1.06-.91.22-2.22.47-3.24-.69-.99-1.12-2-4.13-2.74-5.53-3.59-6.78-5.97-14.38-8.93-21.48-3.35-8.09-7.47-15.76-10.83-23.84-.36-.86-.99-2.56-.92-3.69.08-1.17.65-2.27,1.29-3.22,1.77-2.62,4.79-3.23,7.66-4,4.37-1.17,9.63-1.47,14.17-1.27,3.67.17,7.3,1.52,10.95,2.05,5.43.8,10.82,4.06,15.48,6.87,1.39.84,2.72,1.89,4.02,2.92,2.08,1.65,3.13,2.63,4.9,4.12,1.87,1.58,3.42,3.24,4.99,5,1.62,1.8,3.43,3.71,4.88,5.35.86.97,5.89,7.35,8.55,11.66,1.33,2.15.38,3.9-.39,4.62"/>
</svg>