<?xml version="1.0" encoding="UTF-8"?>
<svg id="Layer_1" data-name="Layer 1" xmlns="http://www.w3.org/2000/svg" version="1.1" viewBox="0 0 300 300">
  <defs>
    <style>
      .cls-1 {
        fill: #6183c2;
        stroke-width: 0px;
      }
    </style>
  </defs>
  <path class="cls-1" d="M162.67,212.71c6.27-.97,7.66-1.18,13.95-2.14,2.88-.45,6.93,0,8.76-2.31,1.01-1.28,1.4-2.35,1.03-3.97-1.33-5.73-2.16-11.25-4.5-16.69-1.27-2.95-2.89-5.82-4.24-8.43-2.48-4.79-5.89-8.32-9.57-12.17-2.94-3.07-6.67-5.38-10.18-7.77-3.04-2.07-6.49-2.84-9.93-3.95-8.74-2.81-19.34-2.78-28.37-1.38-3.01.46-5.88,1.52-6.39,4.79-.31,2.02.64,4.41,1.48,8.31,1.13,5.24,1.87,7.82,2.93,13.02.8,3.94,1.82,7.82,6.67,7.11,5.5-.81,10.99-1.01,16.39,1.61,7.26,3.52,11.76,7.61,14.74,16.21.59,1.71.95,3.7,1.12,5.45.25,2.5,3.91,2.64,6.11,2.3"/>
</svg>