<?xml version="1.0" encoding="UTF-8"?>
<svg id="Layer_1" data-name="Layer 1" xmlns="http://www.w3.org/2000/svg" version="1.1" viewBox="0 0 300 300">
  <defs>
    <style>
      .cls-1 {
        fill: #f59177;
        stroke-width: 0px;
      }
    </style>
  </defs>
  <path class="cls-1" d="M173.73,154.61c-3.65-.16-8.1-.35-11.75.15-6.18.84-12.32.27-18.6.79-4.62.39-10.77.69-15.37,1.33-1.59.22-4.65.54-5.96,1.7-1.73,1.53-1.73,4.87-.89,6.31,2.15,3.66,3.75,6.86,5.98,9.96,5.09,7.09,9.48,14.68,15.14,21.37,1.67,1.97,4.81,6.26,6.19,8.5,2.38,3.82,5.68,6.53,9.82,5.22,5-1.58,8.02-6.73,9.45-11.04.48-1.45.88-2.48,1.5-3.86.73-1.63,1.09-3.74,1.9-6.18,1.15-3.45,1.87-6.11,2.92-9.87,1.04-3.74,2.16-6.88,3.36-10.41.87-2.56,1.68-5.49,1.83-8.22.11-2.13-2.45-5.62-5.53-5.75Z"/>
</svg>