<?xml version="1.0" encoding="UTF-8"?>
<svg id="Layer_1" data-name="Layer 1" xmlns="http://www.w3.org/2000/svg" version="1.1" viewBox="0 0 300 300">
  <defs>
    <style>
      .cls-1 {
        fill: #f59177;
        stroke-width: 0px;
      }
    </style>
  </defs>
  <path class="cls-1" d="M164.83,214.37c2.52-2.23,4.85-4.9,7.2-7.32,2.35-2.42,4.66-5.16,6.95-7.37,1.77-1.7,3.99-3.57,4.89-5.92.9-2.36.86-4.08.43-6.32-.76-4-2.96-9.11-4.15-13.02-.79-2.59-1.39-5.21-2.19-7.82-.71-2.34-.94-4.97-2.43-6.9-1.58-2.04-3.78-3.29-6.09-4.3-3.25-1.42-6.91-1.99-10.23-3.29-3.02-1.18-7.54-2.55-10.63-3.56-3.55-1.16-7.71-1.47-11.05.7-2.38,1.54-4.14,4.33-6.13,6.35-2.34,2.39-4.97,4.95-7.11,7.5-3.66,4.36-9.37,9.09-8.14,15.34.83,4.25,2.32,9.16,3.38,13.43,1.12,4.51,1.48,9.63,3.89,13.68,2.64,4.44,8.88,6.07,13.8,7.36,2.7.71,5.01,1.39,7.75,2.26,2.27.72,4.53,1.76,6.89,2.33,2.48.61,4.2.89,6.75.28,2.55-.61,4.6-1.99,6.22-3.42Z"/>
</svg>