<?xml version="1.0" encoding="UTF-8"?>
<svg id="Layer_1" data-name="Layer 1" xmlns="http://www.w3.org/2000/svg" version="1.1" viewBox="0 0 300 300">
  <defs>
    <style>
      .cls-1 {
        fill: #f59177;
        stroke-width: 0px;
      }
    </style>
  </defs>
  <path class="cls-1" d="M159.36,165.02c-3.4-1.23-6.72.04-9.08,2.88-1.28,1.53-1.98,3.36-2.51,5.27-.31,1.13-.43,2.11-.52,3.26-.05.59-.03,1.01,0,1.6-.56-.17-.96-.27-1.54-.35-1.12-.15-2.09-.25-3.24-.18-1.95.11-3.85.42-5.59,1.36-3.23,1.75-5.16,4.78-4.71,8.42.38,3.05,2.21,5.18,4.22,7.14.83.81,2.15,1.41,3.18,1.88,1.08.5,2.17,1.06,3.29,1.45,3.24,1.13,6.34,2.29,9.68,3.09,1.74.41,3.51.57,5.29.72.96.08,2.81.14,3.94-.05.86-.14,2.36-.63,3.06-1.2.7-.57,1.49-1.97,1.81-2.79.42-1.08.99-2.93,1.09-3.84.23-1.88.09-3.87.07-5.69-.04-3.49-.31-6.63-.7-10.09-.14-1.2-.44-2.4-.69-3.59-.24-1.13-.57-2.54-1.12-3.57-1.37-2.49-3.09-4.7-5.94-5.73h0Z"/>
</svg>