<?xml version="1.0" encoding="UTF-8"?>
<svg id="Layer_1" data-name="Layer 1" xmlns="http://www.w3.org/2000/svg" version="1.1" viewBox="0 0 300 300">
  <defs>
    <style>
      .cls-1 {
        fill: #20453c;
        stroke-width: 0px;
      }
    </style>
  </defs>
  <path class="cls-1" d="M123.46,201.58c-.08-1.16-.19-2.04-.17-2.96.03-1.53.11-3.1-.05-4.65-.4-3.83-.28-7.62-.39-11.45-.15-5.08.5-10.02.13-15.06-.27-3.73-1.15-8.8,3.27-10.13,2.45-.73,5.37-.7,7.92-.64,4.13.09,8.22.18,12.37.06,4.93-.13,9.85-.27,14.78-.41,2.55-.07,5.09-.08,7.63-.08,1.52,0,4.15-.35,5.48.41,3.44,1.97,2.6,9.2,2.86,12.74.49,6.56.07,13.06.19,19.65.06,3.65.26,7.16.35,10.65.04,1.34,0,2.53-.34,3.81-.35,1.32-.91,1.82-2,2.58-1.39.98-2.86.97-4.58,1.14-2.61.26-5.24.19-7.86.36-1.28.09-2.57.11-3.85.19-1.61.1-3.15.53-4.77.55-3.37.03-6.76.19-10.14.28-1.75.05-3.46.34-5.19.48-1.87.14-3.75.01-5.63.16-2.17.16-4.63.33-6.8.1-3.52-.37-3.05-2.86-3.09-5.81,0-.62-.11-1.63-.13-1.97"/>
</svg>