<?xml version="1.0" encoding="UTF-8"?>
<svg id="Layer_1" data-name="Layer 1" xmlns="http://www.w3.org/2000/svg" version="1.1" viewBox="0 0 300 300">
  <defs>
    <style>
      .cls-1 {
        fill: #f59177;
        stroke-width: 0px;
      }
    </style>
  </defs>
  <path class="cls-1" d="M167.82,158.33c1.09.43,2.22,1.25,1.73,2.52-.76,2-1.37,3.44-1.92,4.8-.92,2.27-1.81,4.39-2.72,6.64-1.63,4-2.84,7.7-3.25,11.92-.26,2.71.48,6.09,1.72,8.84,1.19,2.64,3.45,4.24,5.49,5.78,1.03.78,2.33,1.6,4.33,2.24,1.22.39,1.89,1.45,1.32,2.83-.7,1.72-1.4,3.49-1.86,4.61-.95,2.34-2.04,4.91-3.11,7.2-.36.75-1.24,1.09-2.02.79-1.73-.68-3.4-1.37-5.18-2.01-3.07-1.12-6.83-2.85-9.77-4.14-9.01-3.94-14.64-6.52-21.31-8.79-.57-.19-2.98-1.14-5.06-2.1-1.01-.47-1.62-1.79-1.02-3.28.81-1.99,1.5-3.45,2.17-5.15,1.14-2.88,2.05-5.68,3.23-8.57,2.97-7.31,6.26-13.98,9.38-21.31,1.53-3.59,3.03-7.63,4.51-11.24.33-.81,1.26-1.19,1.79-.96,0,0,10.56,3.86,13.29,5.18,2.83,1.37,8.24,4.21,8.24,4.21"/>
</svg>