<?xml version="1.0" encoding="UTF-8"?>
<svg id="Layer_1" data-name="Layer 1" xmlns="http://www.w3.org/2000/svg" version="1.1" viewBox="0 0 300 300">
  <defs>
    <style>
      .cls-1 {
        fill: #6183c2;
        stroke-width: 0px;
      }
    </style>
  </defs>
  <path class="cls-1" d="M144.06,187.46c.08.02.23.06.31.09.07.03.25.09.31.14.12.12.24.23.33.37.08.12.13.26.18.39.07.19.13.38.17.57.07.32.1.65.16.97.09.49.24.96.4,1.43.24.73.46,1.49.73,2.2.02.06.07.2.1.26.17.47.33.75.61,1.1.17.22.35.44.59.57.43.23.95.11,1.39-.1.35-.17.67-.39.92-.68.13-.15.24-.31.34-.48.3-.45.67-1.07.96-1.53.52-.79.92-1.33,1.41-2.15.09-.15.22-.37.33-.49.14-.16.27-.3.42-.45.12-.11.24-.21.38-.28.47-.24,1.04-.1,1.56-.05.2.02.4.03.6.03.57.02,1.13.04,1.69.05.21,0,.43.01.64,0,.17-.02.35-.03.52-.03.27,0,.5,0,.75.02.23.02.55.01.79.02.54.03,1-.09,1.44-.38.19-.12.37-.28.47-.49.14-.27.15-.6.11-.91-.03-.27-.1-.54-.21-.79-.1-.21-.23-.41-.36-.6-.25-.38-.51-.76-.76-1.13-.48-.72-.97-1.43-1.49-2.13-.4-.53-.88-.98-1.22-1.55-.3-.5.02-1.12.23-1.66.52-1.34.92-2.63,1.44-3.97.17-.45.35-.97.42-1.44.07-.47.01-.97-.22-1.4-.2-.37-.53-.66-.93-.79-.65-.21-1.36,0-2.01.22-.88.29-1.56.65-2.43.97-.3.11-.6.22-.9.32-.58.19-1.43.28-2.04.38-.35.06-.7-.08-1-.26-.3-.19-.56-.38-.86-.57-.18-.11-.33-.25-.54-.39-.22-.15-.5-.33-.71-.49-1.04-.81-1.87-1.82-3.07-2.36-.33-.15-.67-.3-1.03-.27-.16.01-.31.07-.46.14-.41.18-.78.48-.95.89-.14.34-.14.71-.15,1.08,0,.72.09,1.48.09,2.2,0,1.14-.11,2.23-.14,3.37,0,.24-.01.49-.09.73-.15.45-.5.88-.92,1.21-1.39,1.11-2.89,1.97-4.35,2.99-.22.15-.44.3-.61.5-.36.42-.46.98-.31,1.51.16.53.56,1.01,1.07,1.21.33.13.7.21,1.04.31.33.1.68.18,1.01.3.58.22,1.21.3,1.78.54.27.12.56.21.84.29.56.16.74.29,1.19.43h0Z"/>
</svg>