<?xml version="1.0" encoding="UTF-8"?>
<svg id="Layer_1" data-name="Layer 1" xmlns="http://www.w3.org/2000/svg" version="1.1" viewBox="0 0 300 300">
  <defs>
    <style>
      .cls-1 {
        fill: #f9e271;
      }

      .cls-1, .cls-2 {
        stroke-width: 0px;
      }

      .cls-2 {
        fill: #6183c2;
      }
    </style>
  </defs>
  <path class="cls-2" d="M140.75,196.29c-.95,2.71-1.5,4.86-.44,7.54,1.02,2.57,3.35,3.18,5.84,2.66,1.63-.34,3.3-1.5,4.32-2.83.76-1,2.69-1.21,3.74-.51,1.59,1.05,3.5,1.46,5.47.78,2-.69,2.75-2.16,3.13-4.13.14-.72.26-1.84.24-2.97-.01-.83,2.04-3.43,2.86-3.53,2.33-.3,4.75-.52,6.37-2.44,1.55-1.84,1.9-3.99,1.2-6.31-.49-1.62-2.07-3.75-3.65-4.43-.89-.38-1.88-.73-2.83-.91-.18-.03-.38-.07-.59-.09-.88-.12-1.2-1.03-.68-1.76.71-.98,1.46-2.13,1.8-3.31.84-2.91.8-5.82-.82-8.42-.56-.9-1.1-1.71-2.07-2.13-1.4-.61-2.98-.77-4.49-.65-1.64.13-3.07.79-4.43,1.59-1.06.62-2.16.09-2.68-1.02-.48-1.03-1.11-2.07-1.91-2.89-1.08-1.11-2.42-1.96-3.99-1.96-1.49,0-3.14-.07-4.59.39-2.06.65-4.18,2.31-4.86,4.43-.19.59-.28,1.18-.3,1.76-.06,1.79-1.21,3.43-3,3.42-1.57,0-3.11.15-4.51,1.03-2.63,1.66-4.36,3.92-4.06,7.09.13,1.4.51,2.62,1.3,3.73.53.74,1.3,1.5,1.89,2.19.68.79.73,2.54.21,3.44-.87,1.51-1.28,3.52-1.34,4.91-.07,1.48.18,2.43,1.16,3.55.91,1.06,2.14,2.06,3.41,2.62,1.6.7,3.65.89,5.36.45.86-.22,2.95-1.29,2.95-1.29"/>
  <path class="cls-1" d="M145.31,175.01c-3.52,1.89-4.9,5.2-4.59,7.94.53,4.75,6.34,7.56,10.55,6.48,8.11-2.08,7.14-13.49-.79-14.77-1.17-.19-3.82-.36-5.16.36"/>
</svg>