<?xml version="1.0" encoding="UTF-8"?>
<svg id="Layer_1" data-name="Layer 1" xmlns="http://www.w3.org/2000/svg" version="1.1" viewBox="0 0 300 300">
  <defs>
    <style>
      .cls-1 {
        fill: #f9e271;
        stroke-width: 0px;
      }
    </style>
  </defs>
  <path class="cls-1" d="M147.84,211.41c1.11.35,1.66,1,1.66,1.97,0,1.31-.82,1.97-2.47,1.97h-14.06c-1.68,0-2.52-.66-2.52-1.97,0-.46.15-.88.46-1.25.31-.37.71-.61,1.2-.72l.52-.12c1.07-.27,1.81-.78,2.21-1.54.4-.75.6-1.94.6-3.56v-25.33c0-1.62-.2-2.8-.6-3.54-.4-.73-1.12-1.26-2.15-1.57l-.4-.12c-.54-.12-.96-.36-1.26-.72-.31-.37-.46-.78-.46-1.25,0-1.27.84-1.91,2.52-1.91h19.74c5.55,0,9.84,1.04,12.88,3.13,3.04,2.09,4.56,5.24,4.56,9.45s-1.52,7.13-4.56,9.22c-3.04,2.09-7.49,3.13-13.34,3.13-.77,0-1.44,0-2.04-.03-.59-.02-1.2-.06-1.81-.12-.61-.06-1.26-.13-1.95-.23-.69-.1-1.49-.22-2.41-.38v10.26c0,1.47.19,2.56.57,3.27.38.72,1.01,1.23,1.89,1.54l.86.29.34.12ZM150.19,174.72c-1.22,0-2.23.07-3.01.2-.78.14-1.4.39-1.84.75-.44.37-.75.87-.92,1.51-.17.64-.26,1.46-.26,2.46v8.35c0,1.28.13,2.29.4,3.04.27.75.67,1.31,1.2,1.68.54.37,1.21.61,2.04.72.82.12,1.77.17,2.84.17,3.25,0,5.79-.83,7.63-2.49,1.84-1.66,2.75-3.96,2.75-6.9,0-1.28-.22-2.49-.66-3.65-.44-1.16-1.11-2.17-2.01-3.04-.9-.87-2.03-1.56-3.39-2.06-1.36-.5-2.95-.75-4.79-.75Z"/>
  <path class="cls-1" d="M134.42,156.73c-.87-1.15-2.5-1.37-3.64-.49-1.14.88-1.35,2.53-.48,3.67l2,2.64c.49.65,1.25,1.03,2.06,1.03.57,0,1.12-.19,1.58-.54,1.14-.88,1.35-2.53.48-3.67l-2-2.64Z"/>
  <path class="cls-1" d="M160.63,162.81c.46.38,1.04.59,1.64.59.79,0,1.52-.35,2.01-.97l1.97-2.45c.9-1.12.73-2.78-.38-3.69-1.11-.91-2.75-.74-3.65.38l-1.97,2.45c-.44.54-.64,1.23-.57,1.92.07.7.41,1.32.94,1.76Z"/>
  <path class="cls-1" d="M148.34,150.16c-1.43,0-2.59,1.18-2.59,2.62v3.58c0,1.45,1.16,2.62,2.59,2.62s2.59-1.18,2.59-2.62v-3.58c0-1.45-1.16-2.62-2.59-2.62Z"/>
</svg>